<svg width="172" height="239" viewBox="0 0 172 239" fill="none" xmlns="http://www.w3.org/2000/svg">
<path d="M86 0.203955C86 15.2245 80.5558 49.5668 58.7788 66.7721C31.5575 88.2788 38.8863 -4.91667 86 0.203955Z" fill="#C0C0C0"/>
<path d="M2.38419e-07 0.203955C2.38419e-07 15.2245 5.44424 49.5668 27.2212 66.7721C54.4425 88.2788 47.1137 -4.91667 2.38419e-07 0.203955Z" fill="#C0C0C0"/>
<path d="M86 55.204C86 70.2245 80.5558 104.567 58.7788 121.772C31.5575 143.279 38.8863 50.0833 86 55.204Z" fill="#C0C0C0"/>
<path d="M2.38419e-07 55.204C2.38419e-07 70.2245 5.44424 104.567 27.2212 121.772C54.4425 143.279 47.1137 50.0833 2.38419e-07 55.204Z" fill="#C0C0C0"/>
<path d="M86 111.204C86 126.224 80.5558 160.567 58.7788 177.772C31.5575 199.279 38.8863 106.083 86 111.204Z" fill="#C0C0C0"/>
<path d="M2.38419e-07 111.204C2.38419e-07 126.224 5.44424 160.567 27.2212 177.772C54.4425 199.279 47.1137 106.083 2.38419e-07 111.204Z" fill="#C0C0C0"/>
<path d="M172 0.203955C172 15.2245 166.556 49.5668 144.779 66.7721C117.558 88.2788 124.886 -4.91667 172 0.203955Z" fill="#C0C0C0"/>
<path d="M86 0.203955C86 15.2245 91.4442 49.5668 113.221 66.7721C140.442 88.2788 133.114 -4.91667 86 0.203955Z" fill="#C0C0C0"/>
<path d="M172 55.204C172 70.2245 166.556 104.567 144.779 121.772C117.558 143.279 124.886 50.0833 172 55.204Z" fill="#C0C0C0"/>
<path d="M86 55.204C86 70.2245 91.4442 104.567 113.221 121.772C140.442 143.279 133.114 50.0833 86 55.204Z" fill="#C0C0C0"/>
<path d="M172 111.204C172 126.224 166.556 160.567 144.779 177.772C117.558 199.279 124.886 106.083 172 111.204Z" fill="#C0C0C0"/>
<path d="M86 111.204C86 126.224 91.4442 160.567 113.221 177.772C140.442 199.279 133.114 106.083 86 111.204Z" fill="#C0C0C0"/>
<path d="M86 169.204C86 184.224 80.5558 218.567 58.7788 235.772C31.5575 257.279 38.8863 164.083 86 169.204Z" fill="#C0C0C0"/>
<path d="M2.38419e-07 169.204C2.38419e-07 184.224 5.44424 218.567 27.2212 235.772C54.4425 257.279 47.1137 164.083 2.38419e-07 169.204Z" fill="#C0C0C0"/>
<path d="M172 169.204C172 184.224 166.556 218.567 144.779 235.772C117.558 257.279 124.886 164.083 172 169.204Z" fill="#C0C0C0"/>
<path d="M86 169.204C86 184.224 91.4442 218.567 113.221 235.772C140.442 257.279 133.114 164.083 86 169.204Z" fill="#C0C0C0"/>
</svg>
