<svg width="263" height="270" viewBox="0 0 263 270" fill="none" xmlns="http://www.w3.org/2000/svg">
<path d="M192.499 0.499997C192.499 7.83333 189.899 24.6 179.499 33C166.499 43.5 169.999 -2 192.499 0.499997Z" fill="#808080"/>
<path d="M139.999 1.09958C139.999 8.43291 142.599 25.1996 152.999 33.5996C165.999 44.0996 162.499 -1.40042 139.999 1.09958Z" fill="#808080"/>
<path d="M192.499 46.0996C192.499 53.4329 189.899 70.1996 179.499 78.5996C166.499 89.0996 169.999 43.5996 192.499 46.0996Z" fill="#808080"/>
<path d="M139.999 46.6992C139.999 54.0325 142.599 70.7992 152.999 79.1992C165.999 89.6992 162.499 44.1992 139.999 46.6992Z" fill="#808080"/>
<path d="M192.499 0.499997C192.499 7.83333 189.899 24.6 179.499 33C166.499 43.5 169.999 -2 192.499 0.499997Z" fill="#808080"/>
<path d="M139.999 1.09958C139.999 8.43291 142.599 25.1996 152.999 33.5996C165.999 44.0996 162.499 -1.40042 139.999 1.09958Z" fill="#808080"/>
<path d="M192.499 93.0996C192.499 100.433 189.899 117.2 179.499 125.6C166.499 136.1 169.999 90.5996 192.499 93.0996Z" fill="#808080"/>
<path d="M139.999 93.6992C139.999 101.032 142.599 117.799 152.999 126.199C165.999 136.699 162.499 91.1992 139.999 93.6992Z" fill="#808080"/>
<path d="M191.499 141.1C191.499 148.433 188.899 165.2 178.499 173.6C165.499 184.1 168.999 138.6 191.499 141.1Z" fill="#808080"/>
<path d="M138.999 141.699C138.999 149.032 141.599 165.799 151.999 174.199C164.999 184.699 161.499 139.199 138.999 141.699Z" fill="#808080"/>
<path d="M191.499 186.699C191.499 194.032 188.899 210.799 178.499 219.199C165.499 229.699 168.999 184.199 191.499 186.699Z" fill="#808080"/>
<path d="M138.999 187.299C138.999 194.632 141.599 211.399 151.999 219.799C164.999 230.299 161.499 184.799 138.999 187.299Z" fill="#808080"/>
<path d="M191.499 141.1C191.499 148.433 188.899 165.2 178.499 173.6C165.499 184.1 168.999 138.6 191.499 141.1Z" fill="#808080"/>
<path d="M138.999 141.699C138.999 149.032 141.599 165.799 151.999 174.199C164.999 184.699 161.499 139.199 138.999 141.699Z" fill="#808080"/>
<path d="M191.499 233.699C191.499 241.033 188.899 257.799 178.499 266.199C165.499 276.699 168.999 231.199 191.499 233.699Z" fill="#808080"/>
<path d="M138.999 234.299C138.999 241.632 141.599 258.399 151.999 266.799C164.999 277.299 161.499 231.799 138.999 234.299Z" fill="#808080"/>
<path d="M262.5 0.0995754C262.5 7.43291 259.9 24.1996 249.5 32.5996C236.5 43.0996 240 -2.40042 262.5 0.0995754Z" fill="#808080"/>
<path d="M210 0.699154C210 8.03249 212.6 24.7992 223 33.1992C236 43.6992 232.5 -1.80085 210 0.699154Z" fill="#808080"/>
<path d="M262.5 45.6992C262.5 53.0325 259.9 69.7992 249.5 78.1992C236.5 88.6992 240 43.1992 262.5 45.6992Z" fill="#808080"/>
<path d="M210 46.2987C210 53.6321 212.6 70.3987 223 78.7987C236 89.2987 232.5 43.7987 210 46.2987Z" fill="#808080"/>
<path d="M262.5 0.0995754C262.5 7.43291 259.9 24.1996 249.5 32.5996C236.5 43.0996 240 -2.40042 262.5 0.0995754Z" fill="#808080"/>
<path d="M210 0.699154C210 8.03249 212.6 24.7992 223 33.1992C236 43.6992 232.5 -1.80085 210 0.699154Z" fill="#808080"/>
<path d="M262.5 92.6992C262.5 100.032 259.9 116.799 249.5 125.199C236.5 135.699 240 90.1992 262.5 92.6992Z" fill="#808080"/>
<path d="M210 93.2987C210 100.632 212.6 117.399 223 125.799C236 136.299 232.5 90.7987 210 93.2987Z" fill="#808080"/>
<path d="M262.5 141.1C262.5 148.433 259.9 165.2 249.5 173.6C236.5 184.1 240 138.6 262.5 141.1Z" fill="#808080"/>
<path d="M210 141.699C210 149.032 212.6 165.799 223 174.199C236 184.699 232.5 139.199 210 141.699Z" fill="#808080"/>
<path d="M262.5 186.699C262.5 194.032 259.9 210.799 249.5 219.199C236.5 229.699 240 184.199 262.5 186.699Z" fill="#808080"/>
<path d="M210 187.299C210 194.632 212.6 211.399 223 219.799C236 230.299 232.5 184.799 210 187.299Z" fill="#808080"/>
<path d="M262.5 141.1C262.5 148.433 259.9 165.2 249.5 173.6C236.5 184.1 240 138.6 262.5 141.1Z" fill="#808080"/>
<path d="M210 141.699C210 149.032 212.6 165.799 223 174.199C236 184.699 232.5 139.199 210 141.699Z" fill="#808080"/>
<path d="M262.5 233.699C262.5 241.033 259.9 257.799 249.5 266.199C236.5 276.699 240 231.199 262.5 233.699Z" fill="#808080"/>
<path d="M210 234.299C210 241.632 212.6 258.399 223 266.799C236 277.299 232.5 231.799 210 234.299Z" fill="#808080"/>
<path d="M53.4998 1.5C53.4998 8.83333 50.8998 25.6 40.4998 34C27.4998 44.5 30.9998 -1 53.4998 1.5Z" fill="#808080"/>
<path d="M0.999838 2.09958C0.999838 9.43291 3.59984 26.1996 13.9998 34.5996C26.9998 45.0996 23.4998 -0.400425 0.999838 2.09958Z" fill="#808080"/>
<path d="M53.4998 47.0996C53.4998 54.4329 50.8998 71.1996 40.4998 79.5996C27.4998 90.0996 30.9998 44.5996 53.4998 47.0996Z" fill="#808080"/>
<path d="M0.999838 47.6992C0.999838 55.0325 3.59984 71.7992 13.9998 80.1992C26.9998 90.6992 23.4998 45.1992 0.999838 47.6992Z" fill="#808080"/>
<path d="M53.4999 1.5C53.4999 8.83333 50.8999 25.6 40.4999 34C27.4999 44.5 30.9999 -1 53.4999 1.5Z" fill="#808080"/>
<path d="M0.999899 2.09958C0.999899 9.43291 3.5999 26.1996 13.9999 34.5996C26.9999 45.0996 23.4999 -0.400425 0.999899 2.09958Z" fill="#808080"/>
<path d="M53.4998 94.0996C53.4998 101.433 50.8998 118.2 40.4998 126.6C27.4998 137.1 30.9998 91.5996 53.4998 94.0996Z" fill="#808080"/>
<path d="M0.999899 94.6992C0.999899 102.032 3.5999 118.799 13.9999 127.199C26.9999 137.699 23.4999 92.1992 0.999899 94.6992Z" fill="#808080"/>
<path d="M52.4999 142.1C52.4999 149.433 49.8999 166.2 39.4999 174.6C26.4999 185.1 29.9999 139.6 52.4999 142.1Z" fill="#808080"/>
<path d="M-4.00543e-05 142.699C-4.00543e-05 150.032 2.59996 166.799 13 175.199C26 185.699 22.5 140.199 -4.00543e-05 142.699Z" fill="#808080"/>
<path d="M52.4999 187.699C52.4999 195.032 49.8999 211.799 39.4999 220.199C26.4999 230.699 29.9999 185.199 52.4999 187.699Z" fill="#808080"/>
<path d="M-4.00543e-05 188.299C-4.00543e-05 195.632 2.59996 212.399 13 220.799C26 231.299 22.5 185.799 -4.00543e-05 188.299Z" fill="#808080"/>
<path d="M52.5 142.1C52.5 149.433 49.9 166.2 39.5 174.6C26.5 185.1 30 139.6 52.5 142.1Z" fill="#808080"/>
<path d="M2.09808e-05 142.699C2.09808e-05 150.032 2.60002 166.799 13 175.199C26 185.699 22.5 140.199 2.09808e-05 142.699Z" fill="#808080"/>
<path d="M52.5 234.699C52.5 242.033 49.9 258.799 39.5 267.199C26.5 277.699 30 232.199 52.5 234.699Z" fill="#808080"/>
<path d="M2.09808e-05 235.299C2.09808e-05 242.632 2.60002 259.399 13 267.799C26 278.299 22.5 232.799 2.09808e-05 235.299Z" fill="#808080"/>
<path d="M123.5 1.09958C123.5 8.43291 120.9 25.1996 110.5 33.5996C97.5002 44.0996 101 -1.40042 123.5 1.09958Z" fill="#808080"/>
<path d="M71.0002 1.69915C71.0002 9.03249 73.6002 25.7992 84.0002 34.1992C97.0002 44.6992 93.5002 -0.800846 71.0002 1.69915Z" fill="#808080"/>
<path d="M123.5 46.6992C123.5 54.0325 120.9 70.7992 110.5 79.1992C97.5002 89.6992 101 44.1992 123.5 46.6992Z" fill="#808080"/>
<path d="M71.0002 47.2987C71.0002 54.6321 73.6002 71.3987 84.0002 79.7987C97.0002 90.2987 93.5002 44.7987 71.0002 47.2987Z" fill="#808080"/>
<path d="M123.5 1.09958C123.5 8.43291 120.9 25.1996 110.5 33.5996C97.5003 44.0996 101 -1.40042 123.5 1.09958Z" fill="#808080"/>
<path d="M71.0003 1.69915C71.0003 9.03249 73.6003 25.7992 84.0003 34.1992C97.0003 44.6992 93.5003 -0.800846 71.0003 1.69915Z" fill="#808080"/>
<path d="M123.5 93.6992C123.5 101.032 120.9 117.799 110.5 126.199C97.5003 136.699 101 91.1992 123.5 93.6992Z" fill="#808080"/>
<path d="M71.0003 94.2987C71.0003 101.632 73.6003 118.399 84.0003 126.799C97.0003 137.299 93.5003 91.7987 71.0003 94.2987Z" fill="#808080"/>
<path d="M123.5 142.1C123.5 149.433 120.9 166.2 110.5 174.6C97.5003 185.1 101 139.6 123.5 142.1Z" fill="#808080"/>
<path d="M71.0003 142.699C71.0003 150.032 73.6003 166.799 84.0003 175.199C97.0003 185.699 93.5003 140.199 71.0003 142.699Z" fill="#808080"/>
<path d="M123.5 187.699C123.5 195.032 120.9 211.799 110.5 220.199C97.5003 230.699 101 185.199 123.5 187.699Z" fill="#808080"/>
<path d="M71.0003 188.299C71.0003 195.632 73.6003 212.399 84.0003 220.799C97.0003 231.299 93.5003 185.799 71.0003 188.299Z" fill="#808080"/>
<path d="M123.5 142.1C123.5 149.433 120.9 166.2 110.5 174.6C97.5003 185.1 101 139.6 123.5 142.1Z" fill="#808080"/>
<path d="M71.0003 142.699C71.0003 150.032 73.6003 166.799 84.0003 175.199C97.0003 185.699 93.5003 140.199 71.0003 142.699Z" fill="#808080"/>
<path d="M123.5 234.699C123.5 242.033 120.9 258.799 110.5 267.199C97.5003 277.699 101 232.199 123.5 234.699Z" fill="#808080"/>
<path d="M71.0003 235.299C71.0003 242.632 73.6003 259.399 84.0003 267.799C97.0003 278.299 93.5003 232.799 71.0003 235.299Z" fill="#808080"/>
</svg>
