<svg width="222" height="246" viewBox="0 0 222 246" fill="none" xmlns="http://www.w3.org/2000/svg">
<path d="M222 0.11946C222 8.91719 218.708 29.032 205.541 39.1094C189.081 51.7061 193.513 -2.87977 222 0.11946Z" fill="#C0C0C0"/>
<path d="M170 0.11946C170 8.91719 173.292 29.032 186.459 39.1094C202.919 51.7061 198.487 -2.87977 170 0.11946Z" fill="#C0C0C0"/>
<path d="M222 0.11946C222 8.91719 218.708 29.032 205.541 39.1094C189.081 51.7061 193.513 -2.87977 222 0.11946Z" fill="#C0C0C0"/>
<path d="M170 0.11946C170 8.91719 173.292 29.032 186.459 39.1094C202.919 51.7061 198.487 -2.87977 170 0.11946Z" fill="#C0C0C0"/>
<path d="M222 41.1195C222 49.9172 218.708 70.032 205.541 80.1094C189.081 92.7061 193.513 38.1202 222 41.1195Z" fill="#C0C0C0"/>
<path d="M170 41.1195C170 49.9172 173.292 70.032 186.459 80.1094C202.919 92.7061 198.487 38.1202 170 41.1195Z" fill="#C0C0C0"/>
<path d="M222 82.1195C222 90.9172 218.708 111.032 205.541 121.109C189.081 133.706 193.513 79.1202 222 82.1195Z" fill="#C0C0C0"/>
<path d="M170 82.1195C170 90.9172 173.292 111.032 186.459 121.109C202.919 133.706 198.487 79.1202 170 82.1195Z" fill="#C0C0C0"/>
<path d="M222 123.119C222 131.917 218.708 152.032 205.541 162.109C189.081 174.706 193.513 120.12 222 123.119Z" fill="#C0C0C0"/>
<path d="M170 123.119C170 131.917 173.292 152.032 186.459 162.109C202.919 174.706 198.487 120.12 170 123.119Z" fill="#C0C0C0"/>
<path d="M222 164.119C222 172.917 218.708 193.032 205.541 203.109C189.081 215.706 193.513 161.12 222 164.119Z" fill="#C0C0C0"/>
<path d="M170 164.119C170 172.917 173.292 193.032 186.459 203.109C202.919 215.706 198.487 161.12 170 164.119Z" fill="#C0C0C0"/>
<path d="M164 0.11946C164 8.91719 160.708 29.032 147.541 39.1094C131.081 51.7061 135.513 -2.87977 164 0.11946Z" fill="#C0C0C0"/>
<path d="M112 0.11946C112 8.91719 115.292 29.032 128.459 39.1094C144.919 51.7061 140.487 -2.87977 112 0.11946Z" fill="#C0C0C0"/>
<path d="M164 0.11946C164 8.91719 160.708 29.032 147.541 39.1094C131.081 51.7061 135.513 -2.87977 164 0.11946Z" fill="#C0C0C0"/>
<path d="M112 0.11946C112 8.91719 115.292 29.032 128.459 39.1094C144.919 51.7061 140.487 -2.87977 112 0.11946Z" fill="#C0C0C0"/>
<path d="M164 41.1195C164 49.9172 160.708 70.032 147.541 80.1094C131.081 92.7061 135.513 38.1202 164 41.1195Z" fill="#C0C0C0"/>
<path d="M112 41.1195C112 49.9172 115.292 70.032 128.459 80.1094C144.919 92.7061 140.487 38.1202 112 41.1195Z" fill="#C0C0C0"/>
<path d="M164 82.1195C164 90.9172 160.708 111.032 147.541 121.109C131.081 133.706 135.513 79.1202 164 82.1195Z" fill="#C0C0C0"/>
<path d="M112 82.1195C112 90.9172 115.292 111.032 128.459 121.109C144.919 133.706 140.487 79.1202 112 82.1195Z" fill="#C0C0C0"/>
<path d="M164 123.119C164 131.917 160.708 152.032 147.541 162.109C131.081 174.706 135.513 120.12 164 123.119Z" fill="#C0C0C0"/>
<path d="M112 123.119C112 131.917 115.292 152.032 128.459 162.109C144.919 174.706 140.487 120.12 112 123.119Z" fill="#C0C0C0"/>
<path d="M164 164.119C164 172.917 160.708 193.032 147.541 203.109C131.081 215.706 135.513 161.12 164 164.119Z" fill="#C0C0C0"/>
<path d="M112 164.119C112 172.917 115.292 193.032 128.459 203.109C144.919 215.706 140.487 161.12 112 164.119Z" fill="#C0C0C0"/>
<path d="M164 0.11946C164 8.91719 160.708 29.032 147.541 39.1094C131.081 51.7061 135.513 -2.87977 164 0.11946Z" fill="#C0C0C0"/>
<path d="M112 0.11946C112 8.91719 115.292 29.032 128.459 39.1094C144.919 51.7061 140.487 -2.87977 112 0.11946Z" fill="#C0C0C0"/>
<path d="M164 0.11946C164 8.91719 160.708 29.032 147.541 39.1094C131.081 51.7061 135.513 -2.87977 164 0.11946Z" fill="#C0C0C0"/>
<path d="M112 0.11946C112 8.91719 115.292 29.032 128.459 39.1094C144.919 51.7061 140.487 -2.87977 112 0.11946Z" fill="#C0C0C0"/>
<path d="M164 41.1195C164 49.9172 160.708 70.032 147.541 80.1094C131.081 92.7061 135.513 38.1202 164 41.1195Z" fill="#C0C0C0"/>
<path d="M112 41.1195C112 49.9172 115.292 70.032 128.459 80.1094C144.919 92.7061 140.487 38.1202 112 41.1195Z" fill="#C0C0C0"/>
<path d="M164 82.1195C164 90.9172 160.708 111.032 147.541 121.109C131.081 133.706 135.513 79.1202 164 82.1195Z" fill="#C0C0C0"/>
<path d="M112 82.1195C112 90.9172 115.292 111.032 128.459 121.109C144.919 133.706 140.487 79.1202 112 82.1195Z" fill="#C0C0C0"/>
<path d="M164 123.119C164 131.917 160.708 152.032 147.541 162.109C131.081 174.706 135.513 120.12 164 123.119Z" fill="#C0C0C0"/>
<path d="M112 123.119C112 131.917 115.292 152.032 128.459 162.109C144.919 174.706 140.487 120.12 112 123.119Z" fill="#C0C0C0"/>
<path d="M164 164.119C164 172.917 160.708 193.032 147.541 203.109C131.081 215.706 135.513 161.12 164 164.119Z" fill="#C0C0C0"/>
<path d="M112 164.119C112 172.917 115.292 193.032 128.459 203.109C144.919 215.706 140.487 161.12 112 164.119Z" fill="#C0C0C0"/>
<path d="M108 0.11946C108 8.91719 104.708 29.032 91.5407 39.1094C75.0813 51.7061 79.5127 -2.87977 108 0.11946Z" fill="#C0C0C0"/>
<path d="M56 0.11946C56 8.91719 59.2919 29.032 72.4593 39.1094C88.9187 51.7061 84.4873 -2.87977 56 0.11946Z" fill="#C0C0C0"/>
<path d="M108 0.11946C108 8.91719 104.708 29.032 91.5407 39.1094C75.0813 51.7061 79.5127 -2.87977 108 0.11946Z" fill="#C0C0C0"/>
<path d="M56 0.11946C56 8.91719 59.2919 29.032 72.4593 39.1094C88.9187 51.7061 84.4873 -2.87977 56 0.11946Z" fill="#C0C0C0"/>
<path d="M108 41.1195C108 49.9172 104.708 70.032 91.5407 80.1094C75.0813 92.7061 79.5127 38.1202 108 41.1195Z" fill="#C0C0C0"/>
<path d="M56 41.1195C56 49.9172 59.2919 70.032 72.4593 80.1094C88.9187 92.7061 84.4873 38.1202 56 41.1195Z" fill="#C0C0C0"/>
<path d="M108 82.1195C108 90.9172 104.708 111.032 91.5407 121.109C75.0813 133.706 79.5127 79.1202 108 82.1195Z" fill="#C0C0C0"/>
<path d="M56 82.1195C56 90.9172 59.2919 111.032 72.4593 121.109C88.9187 133.706 84.4873 79.1202 56 82.1195Z" fill="#C0C0C0"/>
<path d="M108 123.119C108 131.917 104.708 152.032 91.5407 162.109C75.0813 174.706 79.5127 120.12 108 123.119Z" fill="#C0C0C0"/>
<path d="M56 123.119C56 131.917 59.2919 152.032 72.4593 162.109C88.9187 174.706 84.4873 120.12 56 123.119Z" fill="#C0C0C0"/>
<path d="M108 164.119C108 172.917 104.708 193.032 91.5407 203.109C75.0813 215.706 79.5127 161.12 108 164.119Z" fill="#C0C0C0"/>
<path d="M56 164.119C56 172.917 59.2919 193.032 72.4593 203.109C88.9187 215.706 84.4873 161.12 56 164.119Z" fill="#C0C0C0"/>
<path d="M108 0.11946C108 8.91719 104.708 29.032 91.5407 39.1094C75.0813 51.7061 79.5127 -2.87977 108 0.11946Z" fill="#C0C0C0"/>
<path d="M56 0.11946C56 8.91719 59.2919 29.032 72.4593 39.1094C88.9187 51.7061 84.4873 -2.87977 56 0.11946Z" fill="#C0C0C0"/>
<path d="M108 0.11946C108 8.91719 104.708 29.032 91.5407 39.1094C75.0813 51.7061 79.5127 -2.87977 108 0.11946Z" fill="#C0C0C0"/>
<path d="M56 0.11946C56 8.91719 59.2919 29.032 72.4593 39.1094C88.9187 51.7061 84.4873 -2.87977 56 0.11946Z" fill="#C0C0C0"/>
<path d="M108 41.1195C108 49.9172 104.708 70.032 91.5407 80.1094C75.0813 92.7061 79.5127 38.1202 108 41.1195Z" fill="#C0C0C0"/>
<path d="M56 41.1195C56 49.9172 59.2919 70.032 72.4593 80.1094C88.9187 92.7061 84.4873 38.1202 56 41.1195Z" fill="#C0C0C0"/>
<path d="M108 82.1195C108 90.9172 104.708 111.032 91.5407 121.109C75.0813 133.706 79.5127 79.1202 108 82.1195Z" fill="#C0C0C0"/>
<path d="M56 82.1195C56 90.9172 59.2919 111.032 72.4593 121.109C88.9187 133.706 84.4873 79.1202 56 82.1195Z" fill="#C0C0C0"/>
<path d="M108 123.119C108 131.917 104.708 152.032 91.5407 162.109C75.0813 174.706 79.5127 120.12 108 123.119Z" fill="#C0C0C0"/>
<path d="M56 123.119C56 131.917 59.2919 152.032 72.4593 162.109C88.9187 174.706 84.4873 120.12 56 123.119Z" fill="#C0C0C0"/>
<path d="M108 164.119C108 172.917 104.708 193.032 91.5407 203.109C75.0813 215.706 79.5127 161.12 108 164.119Z" fill="#C0C0C0"/>
<path d="M56 164.119C56 172.917 59.2919 193.032 72.4593 203.109C88.9187 215.706 84.4873 161.12 56 164.119Z" fill="#C0C0C0"/>
<path d="M108 205.119C108 213.917 104.708 234.032 91.5407 244.109C75.0813 256.706 79.5127 202.12 108 205.119Z" fill="#C0C0C0"/>
<path d="M56 205.119C56 213.917 59.2919 234.032 72.4593 244.109C88.9187 256.706 84.4873 202.12 56 205.119Z" fill="#C0C0C0"/>
<path d="M222 205.119C222 213.917 218.708 234.032 205.541 244.109C189.081 256.706 193.513 202.12 222 205.119Z" fill="#C0C0C0"/>
<path d="M170 205.119C170 213.917 173.292 234.032 186.459 244.109C202.919 256.706 198.487 202.12 170 205.119Z" fill="#C0C0C0"/>
<path d="M164 205.119C164 213.917 160.708 234.032 147.541 244.109C131.081 256.706 135.513 202.12 164 205.119Z" fill="#C0C0C0"/>
<path d="M112 205.119C112 213.917 115.292 234.032 128.459 244.109C144.919 256.706 140.487 202.12 112 205.119Z" fill="#C0C0C0"/>
<path d="M52 205.119C52 213.917 48.7081 234.032 35.5407 244.109C19.0813 256.706 23.5127 202.12 52 205.119Z" fill="#C0C0C0"/>
<path d="M0 205.119C0 213.917 3.29187 234.032 16.4593 244.109C32.9187 256.706 28.4873 202.12 0 205.119Z" fill="#C0C0C0"/>
<path d="M52 0.11946C52 8.91719 48.7081 29.032 35.5407 39.1094C19.0813 51.7061 23.5127 -2.87977 52 0.11946Z" fill="#C0C0C0"/>
<path d="M0 0.11946C0 8.91719 3.29187 29.032 16.4593 39.1094C32.9187 51.7061 28.4873 -2.87977 0 0.11946Z" fill="#C0C0C0"/>
<path d="M52 0.11946C52 8.91719 48.7081 29.032 35.5407 39.1094C19.0813 51.7061 23.5127 -2.87977 52 0.11946Z" fill="#C0C0C0"/>
<path d="M0 0.11946C0 8.91719 3.29187 29.032 16.4593 39.1094C32.9187 51.7061 28.4873 -2.87977 0 0.11946Z" fill="#C0C0C0"/>
<path d="M52 41.1195C52 49.9172 48.7081 70.032 35.5407 80.1094C19.0813 92.7061 23.5127 38.1202 52 41.1195Z" fill="#C0C0C0"/>
<path d="M0 41.1195C0 49.9172 3.29187 70.032 16.4593 80.1094C32.9187 92.7061 28.4873 38.1202 0 41.1195Z" fill="#C0C0C0"/>
<path d="M52 82.1195C52 90.9172 48.7081 111.032 35.5407 121.109C19.0813 133.706 23.5127 79.1202 52 82.1195Z" fill="#C0C0C0"/>
<path d="M0 82.1195C0 90.9172 3.29187 111.032 16.4593 121.109C32.9187 133.706 28.4873 79.1202 0 82.1195Z" fill="#C0C0C0"/>
<path d="M52 123.119C52 131.917 48.7081 152.032 35.5407 162.109C19.0813 174.706 23.5127 120.12 52 123.119Z" fill="#C0C0C0"/>
<path d="M0 123.119C0 131.917 3.29187 152.032 16.4593 162.109C32.9187 174.706 28.4873 120.12 0 123.119Z" fill="#C0C0C0"/>
<path d="M52 164.119C52 172.917 48.7081 193.032 35.5407 203.109C19.0813 215.706 23.5127 161.12 52 164.119Z" fill="#C0C0C0"/>
<path d="M0 164.119C0 172.917 3.29187 193.032 16.4593 203.109C32.9187 215.706 28.4873 161.12 0 164.119Z" fill="#C0C0C0"/>
<path d="M52 0.11946C52 8.91719 48.7081 29.032 35.5407 39.1094C19.0813 51.7061 23.5127 -2.87977 52 0.11946Z" fill="#C0C0C0"/>
<path d="M0 0.11946C0 8.91719 3.29187 29.032 16.4593 39.1094C32.9187 51.7061 28.4873 -2.87977 0 0.11946Z" fill="#C0C0C0"/>
<path d="M52 0.11946C52 8.91719 48.7081 29.032 35.5407 39.1094C19.0813 51.7061 23.5127 -2.87977 52 0.11946Z" fill="#C0C0C0"/>
<path d="M0 0.11946C0 8.91719 3.29187 29.032 16.4593 39.1094C32.9187 51.7061 28.4873 -2.87977 0 0.11946Z" fill="#C0C0C0"/>
<path d="M52 41.1195C52 49.9172 48.7081 70.032 35.5407 80.1094C19.0813 92.7061 23.5127 38.1202 52 41.1195Z" fill="#C0C0C0"/>
<path d="M0 41.1195C0 49.9172 3.29187 70.032 16.4593 80.1094C32.9187 92.7061 28.4873 38.1202 0 41.1195Z" fill="#C0C0C0"/>
<path d="M52 82.1195C52 90.9172 48.7081 111.032 35.5407 121.109C19.0813 133.706 23.5127 79.1202 52 82.1195Z" fill="#C0C0C0"/>
<path d="M0 82.1195C0 90.9172 3.29187 111.032 16.4593 121.109C32.9187 133.706 28.4873 79.1202 0 82.1195Z" fill="#C0C0C0"/>
<path d="M52 123.119C52 131.917 48.7081 152.032 35.5407 162.109C19.0813 174.706 23.5127 120.12 52 123.119Z" fill="#C0C0C0"/>
<path d="M0 123.119C0 131.917 3.29187 152.032 16.4593 162.109C32.9187 174.706 28.4873 120.12 0 123.119Z" fill="#C0C0C0"/>
<path d="M52 164.119C52 172.917 48.7081 193.032 35.5407 203.109C19.0813 215.706 23.5127 161.12 52 164.119Z" fill="#C0C0C0"/>
<path d="M0 164.119C0 172.917 3.29187 193.032 16.4593 203.109C32.9187 215.706 28.4873 161.12 0 164.119Z" fill="#C0C0C0"/>
</svg>
